<?xml version="1.0" encoding="utf-8"?>
<!-- Generator: Adobe Illustrator 21.1.0, SVG Export Plug-In . SVG Version: 6.00 Build 0)  -->
<svg version="1.1" id="Layer_1" xmlns="http://www.w3.org/2000/svg" xmlns:xlink="http://www.w3.org/1999/xlink" x="0px" y="0px"
	 viewBox="0 0 753 152" style="enable-background:new 0 0 753 152;" xml:space="preserve">
<style type="text/css">
	.st0{fill:#FFFFFF;}
</style>
<path class="st0" d="M105.3,13.9H83v58.8H23V13.9H0.6v133.9H23V90.7h60v57.1h22.3V13.9z"/>
<path class="st0" d="M173.3,147.8c17,0,30.8-5.3,41.5-15.8c10.6-10.5,16-24.2,16-40.9V70.8c0-16.7-5.3-30.3-16-40.9
	c-10.6-10.6-24.5-15.9-41.5-15.9h-43.4v133.9H173.3z M172.7,31.9c11.1,0,19.8,3.6,26.2,10.8c6.3,7.2,9.5,16.5,9.5,27.8V91
	c0,11.5-3.2,20.8-9.5,28c-6.3,7.2-15.1,10.8-26.2,10.8h-20.4v-98H172.7z"/>
<path class="st0" d="M272.7,13.9h-22.4v133.9h22.4V13.9z"/>
<path class="st0" d="M341.6,74.7h-35.2l-0.2-0.3l17.4-18.3c5.3-5.8,9.2-10.8,11.7-14.8c2.5-4.1,3.8-8.3,3.8-12.8
	c0-6.7-2.2-12.1-6.5-16.2c-4.4-4.1-10.3-6.2-17.8-6.2c-8.2,0-14.7,2.4-19.4,7.1c-4.7,4.7-7,10.6-6.8,17.5l0.1,0.3h12.6
	c0-4.5,1.1-8,3.3-10.6c2.2-2.6,5.6-3.9,10.2-3.9c3.5,0,6.2,1.2,8.3,3.5c2,2.4,3.1,5.3,3.1,8.8c0,2.8-0.8,5.6-2.4,8.5
	c-1.6,2.9-4.4,6.6-8.6,11.2l-25.4,27.7v9h51.9V74.7z"/>
<path class="st0" d="M429.1,13.9h-23l-57.3,90.5l0.6,13.6h57.5v29.8h22.3V118H446v-17.9h-16.9V13.9z M404.4,49.5l1.8-4l0.6,0.2v54.3
	h-36L404.4,49.5z"/>
<path class="st0" d="M504,147.8c17,0,30.8-5.3,41.5-15.8c10.6-10.5,16-24.2,16-40.9V70.8c0-16.7-5.3-30.3-16-40.9
	C534.9,19.2,521,13.9,504,13.9h-43.4v133.9H504z M503.4,31.9c11.1,0,19.8,3.6,26.2,10.8s9.5,16.5,9.5,27.8V91
	c0,11.5-3.2,20.8-9.5,28c-6.3,7.2-15.1,10.8-26.2,10.8H483v-98H503.4z"/>
<path class="st0" d="M611,122.4h-4.1v21.9l-0.1,0l-11.2-21.9h-4.1v29.5h4.1V130l0.1,0l11.2,22h4.1V122.4z"/>
<path class="st0" d="M635.6,133.1c0-3.5-0.9-6.2-2.7-8.2c-1.8-2-4.2-3-7.3-3c-3,0-5.4,1-7.2,3c-1.8,2-2.7,4.7-2.7,8.2v8.1
	c0,3.5,0.9,6.2,2.7,8.2c1.8,2,4.2,2.9,7.2,2.9c3,0,5.5-1,7.3-2.9c1.8-2,2.7-4.7,2.7-8.2V133.1z M631.5,141.2c0,2.6-0.5,4.6-1.5,5.9
	c-1,1.3-2.5,2-4.4,2c-1.8,0-3.3-0.7-4.3-2c-1-1.3-1.5-3.3-1.5-5.9V133c0-2.6,0.5-4.5,1.5-5.8c1-1.3,2.4-2,4.3-2c1.9,0,3.3,0.7,4.4,2
	c1,1.3,1.5,3.3,1.5,5.8V141.2z"/>
<path class="st0" d="M641.9,122.4h-4.4l8.9,29.5h4l8.9-29.5h-4.4l-6,23l-0.4,1.7h-0.1l-0.4-1.7L641.9,122.4z"/>
<path class="st0" d="M687.4,148.8H676l5.6-8c1.6-2,2.9-3.9,3.7-5.5c0.9-1.6,1.3-3.3,1.3-5c0-2.5-0.7-4.5-2.1-6
	c-1.4-1.5-3.3-2.3-5.7-2.3c-2.6,0-4.7,0.9-6.2,2.6c-1.5,1.8-2.2,3.9-2.2,6.5l0,0.1h4c0-1.9,0.4-3.4,1.1-4.4c0.7-1.1,1.8-1.6,3.3-1.6
	c1.1,0,2.1,0.5,2.7,1.5c0.7,1,1,2.3,1,3.8c0,1.1-0.3,2.3-0.8,3.5c-0.5,1.2-1.4,2.7-2.7,4.6l-8.1,10.7v2.7h16.6V148.8z"/>
<path class="st0" d="M707.4,133.8c0-3.8-0.7-6.7-2.2-8.8c-1.5-2.1-3.5-3.1-6-3.1s-4.5,1-6,3.1c-1.5,2.1-2.2,5-2.2,8.8v6.7
	c0,3.8,0.7,6.7,2.2,8.8c1.5,2,3.5,3.1,6,3.1c2.5,0,4.5-1,6-3.1c1.5-2,2.2-5,2.2-8.8V133.8z M703.3,141c0,2.7-0.4,4.7-1.1,6.1
	c-0.7,1.4-1.7,2.1-3,2.1c-1.3,0-2.3-0.7-3.1-2.1c-0.7-1.4-1.1-3.4-1.1-6.1v-7.8c0-2.7,0.3-4.7,1-6.1c0.7-1.4,1.7-2.1,3-2.1
	c1.3,0,2.3,0.7,3.1,2.1c0.7,1.4,1.1,3.4,1.1,6.1V141z"/>
<path class="st0" d="M722.2,122.3l-9.9,1.9v2.7l5.8-0.4v25.4h4.1V122.3z"/>
<path class="st0" d="M748.3,122.4H731v3.1h13.3c-2.3,3.3-4.2,6.9-5.5,10.7c-1.3,3.8-2.2,8.1-2.7,12.9l-0.2,2.8h4.1l0.3-2.8
	c0.4-5.1,1.2-9.3,2.2-12.7c1-3.4,3-7,5.8-10.8V122.4z"/>
<g>
	<path class="st0" d="M753,73.5c-0.6-0.6-1.2-1.2-1.8-1.8c-0.7-0.7-1.5-1.5-2.6-1.6c-0.3,0-0.5-0.1-0.8,0c-0.8,0.2-1.5-0.1-2-0.7
		c-1.1-1.2-2.1-2.4-3.2-3.6c-1.3-1.4-2.3-1.5-3.9-0.6c-0.4,0.2-0.8,0.6-1.1,0.6c-0.3,0-0.7-0.5-1-0.7c-0.8-0.6-1.6-1.1-2.5-1.7
		c-0.8-0.5-1.6-0.4-2.3,0.1c-0.6,0.4-1.2,0.9-1.9,1.5c-0.3-0.3-0.6-0.7-0.8-1.1c-1-1.3-1.9-2.5-2.9-3.8c-1.3-1.7-2.2-3.7-3.1-5.7
		c-1.1-2.2-2.5-4.3-4-6.2c-0.7-0.9-1.6-0.9-2.3-0.2c-1,1.1-1.4,2.4-1.1,4c0.9,4.1,2.5,7.9,4.4,11.6c1.3,2.5,2.5,5,3.7,7.5
		c0.4,0.9,0.7,1.9,1.1,2.9c-0.4,0.1-0.8,0.3-1.2,0.4c-1,0.3-1.4,0.7-1.3,1.7c0.1,2.1-0.4,4-1,5.9c-0.1,0.3-0.2,0.6-0.3,0.8
		c-0.6,1.1-0.6,2.3-0.2,3.4c0.3,1,0.6,2,1.1,2.9c1,1.9,1.6,3.9,2.3,5.9c0.6,2,1.6,3.7,3,5.3c1.9,2.2,3.6,4.6,5.4,6.8
		c0.7,0.9,1.4,1.7,2.2,2.6c-12.7,0.8-25.4,2.1-38.2,2.7c0-0.1,0-0.1,0-0.2c0.2-0.1,0.5-0.2,0.7-0.2c2.8-0.6,5.4-1.6,7.6-3.5
		c2.7-2.3,4.2-5.3,4.2-8.9c0-20.7,0-41.5,0-62.2c0-2.8-0.5-5.6-2.3-8c-0.2-0.2-0.4-0.5-0.6-0.7c-0.2-0.2-0.4-0.4-0.6-0.5
		c0,0,0.1-0.1,0.1-0.1c0.6,0.3,1.1,0.5,1.7,0.8c6.5,3.2,13,6.4,19.5,9.6c6,3,12.1,5.9,18.1,8.9c4.2,2.1,6.7,5.5,7.6,10.2
		c0.1,0.4,0.1,0.7,0.2,1.1C753,63.6,753,68.6,753,73.5z"/>
	<path class="st0" d="M708.3,68.4c0,10.3,0,20.6,0,30.9c0,4.9-2.3,8.5-6.5,10.9c-2.4,1.4-5.1,2-7.8,2.2c-3.2,0.3-6.3,0-9.5-0.2
		c-2.2-0.1-4.5-0.2-6.7-0.4c-3.3-0.2-6.6-0.3-9.9-0.5c-3.1-0.2-6.1-0.3-9.2-0.5c-2.1-0.1-4.2-0.2-6.3-0.4c-1.1-0.1-2.1-0.6-2.8-1.6
		c-1.2-1.9-3-2.6-5.1-2.8c-3.2-0.4-6.4-0.4-9.6,0.1c-1.5,0.2-2.9,0.6-4.1,1.6c-1.2,1-2.5,1.3-4,1.3c-2,0-3.9-0.1-5.9-0.2
		c-3.1-0.1-6.2-0.3-9.3-0.5c-3.8-0.2-7.5-0.4-11.3-0.6c-1.5-0.1-2.9-0.1-4.4-0.2c-0.2,0-0.4-0.1-0.6-0.2c-1.2-0.7-1.9-1.8-2.5-3.1
		c-0.7-1.6-1-3.4-1.1-5.1c-0.1-1.6-0.1-3.2-0.1-4.7c0-10.8,0-21.6,0-32.4c0-3.9,1.8-6.8,5-8.9c1.5-1,3.1-1.4,4.8-1.9
		c7.3-2.1,14.6-4.1,22-6.2c0.8-0.2,1.5,0,2.3,0.1c2.5,0.4,4.9,0.9,7,2.5c3.2,2.4,9.4,2.1,12.7-2c0.7-0.9,1.2-1.9,1.9-2.8
		c2.3-2.9,5.2-5.1,8.5-6.9c1.1-0.6,2.5-0.8,3.7-1.1c9.9-2.8,19.8-5.6,29.7-8.4c2.6-0.8,5.3-1.3,8.1-1.2c2.9,0.1,5.7,0.8,7.9,2.9
		c1.7,1.6,2.6,3.6,3,5.8c0.2,1.2,0.3,2.4,0.3,3.6C708.3,47.9,708.3,58.2,708.3,68.4z M674.3,89c0,2.9,0,5.8,0,8.6
		c0,1,0.2,1.4,1.3,1.3c3.4,0,6.7,0,10.1-0.1c0.7,0,1.4-0.1,2.1-0.2c2.6-0.5,4.5-2.6,4.5-5c0.1-3.8,0-7.7,0-11.5
		c0-2.1-1.3-3.6-3.4-4.1c-0.9-0.2-1.8-0.2-2.8-0.1c-1.4,0.1-2.8,0.2-4.2,0.4c-2.2,0.2-4.4,0.4-6.7,0.6c-0.6,0.1-0.8,0.3-0.9,0.9
		c0,0.2,0,0.5,0,0.7C674.3,83.4,674.3,86.2,674.3,89z M658.3,91.1c0-0.9,0-1.8,0-2.6c0-2.3,0-4.6,0-6.9c0-0.5,0-1-0.6-1.1
		c-1-0.1-1.7,0-1.7,1.3c0,3.6,0,7.2,0,10.9c0,0.3,0.1,0.6,0.1,0.9c0.1,0.5,0.5,0.8,1,0.7c0.4,0,0.7,0,1.1,0c3.5-0.1,7-0.2,10.5-0.3
		c0.4,0,0.9,0,1.4,0c0,1.3,0,2.6,0,3.8c0,0.5,0.1,1,0.7,1.1c1.2,0.2,2,0.1,2-1.4c0-5.6,0-11.3,0-16.9c0-0.3,0-0.6-0.1-0.8
		c-0.1-0.2-0.4-0.6-0.7-0.6c-1.1,0-1.9,0-1.9,1.5c0,3.1,0,6.2,0,9.3c0,0.2,0,0.4,0,0.6C666.1,90.8,662.2,91,658.3,91.1z"/>
	<path class="st0" d="M622.5,22.4c0-2.8,0-5.5,0-8.3c0-1.2,0.3-1.5,1.5-1.5c5.3,0,10.6,0,15.9,0c1.5,0,2.9,0.2,4.3,0.8
		c1.9,0.8,2.9,2.2,2.9,4.3c0,3.1,0,6.2,0,9.2c0,2.1-1.2,3.5-3,4.4c-1.5,0.7-3.1,1-4.8,1c-5.1,0-10.2,0-15.3,0
		c-1.1,0-1.4-0.4-1.4-1.4C622.5,28.1,622.5,25.3,622.5,22.4z M626.1,15.6c0,4.6,0,9.2,0,13.7c0.1,0,0.2,0,0.3,0c4.3,0,8.6,0,13,0
		c0.9,0,1.8-0.3,2.7-0.6c0.9-0.3,1.4-1,1.4-2.1c0-2.8,0-5.7,0-8.5c0-1-0.1-1.6-1.4-2c-1-0.3-2.1-0.5-3.1-0.5c-4.1-0.1-8.2,0-12.3,0
		C626.5,15.6,626.3,15.6,626.1,15.6z"/>
	<path class="st0" d="M616.4,21c0-0.6,0-1.1,0-1.7c0-1.8,0-3.6,0-5.3c0-0.9,0.4-1.3,1.3-1.4c0.4,0,0.8,0,1.3,0c0.6,0,1,0.4,1,1
		c0,0.2,0,0.4,0,0.5c0,5.5,0,11.1,0,16.6c0,1.2-0.3,1.6-1.6,1.6c-0.3,0-0.5,0-0.8,0c-0.9-0.1-1.2-0.4-1.2-1.4c0-2.1,0-4.1,0-6.2
		c0-0.2,0-0.4,0-0.6c-5.8,0-11.5,0-17.3,0c0,0.2,0,0.4,0,0.6c0,2.1,0,4.1,0,6.2c0,1.1-0.4,1.4-1.4,1.4c-0.4,0-0.8,0-1.3-0.1
		c-0.6-0.1-0.9-0.4-0.9-1c0-0.2,0-0.3,0-0.5c0-5.6,0-11.1,0-16.7c0-1.2,0.3-1.5,1.5-1.5c0.2,0,0.5,0,0.7,0c1,0,1.4,0.4,1.4,1.4
		c0,2.1,0,4.3,0,6.4c0,0.2,0,0.4,0,0.6C604.8,21,610.6,21,616.4,21z"/>
	<path class="st0" d="M653.1,22.5c0,2.8,0,5.6,0,8.4c0,1.1-0.4,1.4-1.4,1.4c-0.4,0-0.8,0-1.3-0.1c-0.5-0.1-0.8-0.4-0.9-0.9
		c0-0.2,0-0.4,0-0.6c0-5.5,0-11,0-16.6c0-1.2,0.3-1.5,1.5-1.5c0.3,0,0.6,0,0.8,0c0.9,0,1.3,0.4,1.3,1.3
		C653.1,16.8,653.1,19.6,653.1,22.5z"/>
	<path class="st0" d="M662.5,17.3c0.3,0,0.5,0,0.7,0c2.9,0,5.8,0,8.8,0c0.4,0,0.7,0,0.8,0.5c0.1,0.6-0.1,0.9-0.7,0.9
		c-2.1,0-4.1,0-6.2,0c-1.5,0-3,0-4.4,0c-0.4,0-0.7-0.2-0.7-0.6c0-0.9,0-1.8,0-2.6c0-0.7,0.4-1.3,1.1-1.5c0.8-0.3,1.6-0.5,2.5-0.6
		c1.5-0.1,2.9,0,4.4,0c0.5,0,1.1-0.1,1.6-0.2c0.6-0.1,0.7-0.4,0.8-1.1c0-0.6-0.2-1-0.7-1c-1.1-0.1-2.1-0.2-3.2-0.2
		c-1.7,0-3.3,0-5-0.1c-0.7,0-1-0.4-0.7-1c0.1-0.2,0.3-0.4,0.4-0.4c2.8,0,5.7,0,8.5,0.1c0.3,0,0.7,0.1,1,0.3c1.1,0.5,1.5,1.2,1.5,2.3
		c0,1.4-0.5,2.1-1.7,2.4c-0.8,0.2-1.7,0.3-2.5,0.4c-1.3,0.1-2.6,0-4,0c-0.2,0-0.3,0-0.5,0c-1.4,0-1.7,0.3-1.7,1.7
		C662.5,16.8,662.5,17,662.5,17.3z"/>
	<path class="st0" d="M730.2,89.8c-0.8-1.7-1.5-3.3-2.3-5c-0.2-0.5-0.5-1-0.6-1.6c-0.1-0.4-0.1-0.9-0.1-1.3c0-0.2,0.2-0.3,0.3-0.5
		c0.1,0.1,0.3,0.3,0.4,0.4c0.4,1.1,0.8,2.1,1.1,3.2c0.5,1.4,0.9,2.7,1.3,4.1c0,0.2,0,0.4,0,0.5C730.3,89.8,730.3,89.8,730.2,89.8z"
		/>
	<path class="st0" d="M676.7,96c0-4.8,0-9.5,0-14.2c1.5-0.1,2.9-0.2,4.3-0.3c1.6-0.1,3.3-0.3,4.9-0.4c0.9-0.1,1.7,0,2.5,0.4
		c0.7,0.3,1,0.9,1,1.6c0,3.4,0,6.7,0,10.1c0,1-0.5,1.7-1.4,2.2c-0.9,0.5-2,0.5-3,0.5c-2.7,0.1-5.4,0.1-8.1,0.1
		C676.9,96,676.9,96,676.7,96z"/>
</g>
</svg>
